<?xml version="1.0" encoding="UTF-8"?>
<svg width="106px" height="49px" viewBox="0 0 106 49" version="1.1" xmlns="http://www.w3.org/2000/svg" xmlns:xlink="http://www.w3.org/1999/xlink">
    <!-- Generator: sketchtool 59.1 (101010) - https://sketch.com -->
    <title>1FF10128-6CCA-4A48-AC7B-DB5D73DFAB47</title>
    <desc>Created with sketchtool.</desc>
    <g id="desktop" stroke="none" stroke-width="1" fill="none" fill-rule="evenodd">
        <g transform="translate(-167.000000, -805.000000)" fill-rule="nonzero" id="module/desktop/logo-farm">
            <g transform="translate(0.000000, 755.000000)">
                <g id="lego" transform="translate(167.000000, 42.000000)">
                    <rect id="bg" fill-opacity="0" fill="#FFFFFF" x="0" y="0" width="106" height="64"></rect>
                    <g id="Shape" transform="translate(0.000000, 8.000000)" fill="#000000">
                        <path d="M88.2609187,2.92155477 C82.4477739,2.92155477 78.4287633,5.22771025 75.70947,8.4440424 C75.2487633,7.48142756 74.8966784,7.05817668 74.4060071,6.50383039 C72.1811307,3.98679859 68.5966078,2.81068551 63.7947703,2.81068551 C59.0978092,2.81068551 55.1874205,4.27783039 52.4718728,6.58623322 C51.059788,4.2939364 47.6962544,2.77210601 43.639788,2.77210601 C38.339788,2.77210601 32.5715901,3.5249682 29.1425088,9.04371025 C29.0631025,7.05480565 28.880318,6.0060424 27.7630106,4.82093993 C26.4059859,3.38638163 24.2092014,3.00807774 22.0689753,3.00807774 C18.1679505,3.00807774 15.2344099,4.71119435 13.1230247,8.18222615 C10.060636,13.0739576 2.63314488,29.1762191 2.80281979,36.9730247 C2.90769611,42.0108339 6.28883392,45.6403039 12.3364523,45.782636 C17.0633781,45.8950035 20.7685088,44.6289965 23.1267279,42.2542968 C25.2414841,44.5465936 28.4701767,45.8987491 32.3318728,45.8987491 C36.6318021,45.8987491 40.9616961,44.606523 43.5199293,41.7860989 C45.6736396,44.426735 49.0596466,45.9661696 53.4157597,45.9476106 C59.1165371,45.9099859 64.1168905,43.2206572 67.3867845,39.0780424 C69.1771731,43.9585371 73.724311,45.8987491 78.6946996,45.8987491 C89.579364,45.8987491 94.3587279,38.4150742 98.3440283,26.58053 C99.2392226,23.9099293 100.437809,19.4639223 100.636325,15.7258304 C100.965936,9.50441696 98.3327915,2.92155477 88.2609187,2.92155477 Z M102.988551,19.9429823 C102.482898,23.9807208 99.7523675,31.4666431 98.3028269,34.4556184 C94.4074205,42.4786572 89.2048057,48.6438869 79.1891166,48.6438869 C73.8366784,48.6438869 69.4318728,46.9321555 66.8549117,43.6547703 C63.0868551,46.9583746 58.4198587,48.6888339 53.3932862,48.6888339 C49.5203534,48.6888339 46.100636,47.5689046 43.4937102,45.5013428 C40.6096113,47.5314488 36.7291873,48.6626148 32.4180212,48.6626148 C28.8237597,48.6626148 25.5883251,47.6775265 23.0540636,45.8534276 C20.2531166,47.7074912 16.5816961,48.6326502 12.27053,48.5315194 C5.09773852,48.3629682 0.146077739,43.8120848 0.00374558304,37.2086219 C-0.18540636,28.4379647 7.20462898,12.3769046 10.6887703,6.81471378 C13.2926996,2.53351237 17.2727562,0.232975265 22.144636,0.232975265 C27.4348975,0.232975265 29.3541343,1.74506714 30.2942756,3.6669258 C34.3769611,0.197392226 39.7893286,1.77635684e-14 43.639788,1.77635684e-14 C47.8947703,1.77635684e-14 50.5616254,1.12742049 52.8314488,2.9365371 C55.9702473,1.05625442 59.5622615,0.0809045936 63.8472085,0.0809045936 C69.3232509,0.0809045936 73.3872085,1.35365371 76.2263604,4.15797173 C79.5337102,1.40272085 83.6800707,0.148699647 88.3171025,0.148699647 C94.4523675,0.148699647 98.4863604,2.36233922 100.857314,5.65732862 C104.194629,10.3093428 103.602827,14.9950671 102.988551,19.9429823 Z M43.6435336,3.55156184 C38.3547703,3.55156184 33.0248057,4.26546996 29.8036042,9.45235336 L28.4750459,11.5948269 L28.3682968,9.07779505 C28.2896396,7.12634629 28.1079788,6.31730035 27.2019223,5.35468551 C26.2018516,4.2984311 24.5253286,3.78528622 22.0704735,3.78528622 C18.4646007,3.78528622 15.7554205,5.35468551 13.7829965,8.59086926 C10.7460777,13.4376537 3.4144735,29.3773569 3.57778092,36.9546714 C3.68265724,41.8688763 6.9645371,44.8803251 12.3566784,45.0076749 C16.8004382,45.1088057 20.3332721,43.9701484 22.574629,41.7078163 L23.1484523,41.1272509 L23.6979293,41.7265442 C25.7149258,43.9177102 28.7806855,45.1200424 32.3314982,45.1200424 C36.852417,45.1200424 40.7216042,43.7117032 42.942735,41.2620919 L43.5495194,40.5916325 L44.1225936,41.2958021 C46.1976466,43.8502898 49.4151025,45.2099364 53.4153852,45.1724806 C58.6292367,45.1350247 63.4984947,42.7490883 66.7758799,38.5952367 L67.6336184,37.5090177 L68.1167986,38.8124806 C70.1281767,44.2997597 75.6079647,45.1200424 78.6943251,45.1200424 C89.1744664,45.1200424 93.6991307,37.9322686 97.6057739,26.3299505 C98.5758799,23.4533428 99.6733357,19.1421767 99.8606148,15.681258 C99.9992014,13.0743322 99.6471166,9.41864311 97.1787774,6.81920848 C95.2160919,4.74677739 92.2158799,3.69689046 88.2642898,3.69689046 C83.267682,3.69689046 79.2411802,5.46405654 76.3008975,8.95044523 L75.5218163,9.86811307 L75.0049258,8.78189399 C74.5854205,7.90168198 74.2820283,7.53836042 73.8250671,7.02146996 C71.813689,4.74040989 68.4351731,3.58677032 63.7943958,3.58677032 C59.543159,3.58677032 55.6964452,4.86289046 52.9734064,7.17878445 L52.2879647,7.76309541 L51.8122756,6.99525088 C50.5237951,4.90259364 47.317576,3.55156184 43.643159,3.55156184 L43.6435336,3.55156184 Z M43.8233216,6.08357597 C46.6512367,6.08357597 49.909894,7.29115194 49.909894,9.96175265 C49.909894,13.6623887 46.774841,15.0744735 43.6660071,15.2542615 C42.3363251,15.3291731 40.2949823,15.4040848 39.0739223,15.3179364 C39.0739223,15.3179364 38.0363958,16.8985724 36.9351943,19.7040141 C42.6959011,18.8949682 45.1380212,20.2021767 44.1641696,23.532 C42.84947,28.0304452 38.950318,28.3263463 34.1784452,27.4723534 C33.8038869,28.4836608 33.0997173,30.5909258 32.5303887,32.8307845 C34.3769611,32.3700777 35.7628269,32.044212 38.1375265,32.1041413 C40.8418375,32.1715618 42.5722968,33.2952367 42.5722968,35.5313498 C42.5722968,40.9549541 36.579364,42.5468269 32.4217668,42.5468269 C27.8521555,42.5468269 23.8428834,39.9473922 23.8428834,34.95453 C23.8428834,29.0979364 27.0153922,20.2246502 29.9908834,14.3141201 C33.650318,7.05143463 37.3884099,6.08395053 43.8233216,6.08395053 L43.8233216,6.08357597 Z M63.9558304,6.23489753 C69.3869258,6.23489753 73.6681272,8.18634629 73.0388693,13.2765936 C72.5819081,17.0109399 70.7128622,19.202106 67.319364,19.4680424 C66.3679859,19.5429541 62.4838163,19.4305866 63.7722968,15.7674064 C64.2217668,14.4826714 64.4090459,13.4751095 62.4987986,13.4751095 C60.9368905,13.4751095 59.9218375,14.4601979 59.1614841,15.527689 C57.4946996,17.8686784 53.8764664,27.2626007 53.314629,31.1153074 C52.9325795,33.759689 54.0712367,34.2953074 55.3185159,34.2953074 C57.3186572,34.2953074 59.5622615,32.179053 60.3263604,28.6896678 C60.3263604,28.6896678 56.5171025,28.5960283 57.5696113,25.2175124 C58.5846643,21.9401272 60.5248763,21.232212 63.7310954,21.1011166 C70.0536396,20.8426714 69.4281272,25.5096678 68.9224735,27.996735 C67.2819081,36.0782049 61.5286926,42.5730459 53.3895406,42.5730459 C47.8198587,42.5730459 44.3626855,39.4866855 44.3626855,33.8083816 C44.3626855,29.7631519 46.370318,23.4083958 47.9621908,19.6927774 C51.3481979,11.7783604 54.9027562,6.23489753 63.9558304,6.23489753 Z M88.6766784,6.28359011 C99.4414841,6.41093993 97.52,15.9883958 96.6809894,20.1534841 C95.7258657,24.9178657 93.5721555,30.55347 91.2349117,34.7560141 C87.4219081,41.6104311 82.7923675,42.5693004 78.7508834,42.5206078 C74.7131449,42.4719152 70.1510247,40.9811731 70.1210601,34.7447774 C70.0836042,30.2688057 72.0238163,23.9477597 73.6681272,19.8088905 C76.5222615,12.2952509 79.4438163,6.1749682 88.6766784,6.28359011 Z M22.1326502,6.43715901 C24.8347138,6.43715901 25.5066714,7.82302473 25.4662191,9.4860636 C25.3613428,13.9208339 18.1893004,27.4049329 15.8374488,32.67347 C21.4700565,31.6958728 22.886636,33.73347 22.7068481,35.6137527 C22.1787208,41.2620919 16.9985795,42.5206078 12.501258,42.419477 C9.2399788,42.3408198 6.3079364,40.8463322 6.22590813,37.0632933 C6.08357597,30.4373569 12.8398587,15.1156749 16.0217314,10.0404099 C17.4885018,7.62450883 19.2777668,6.43715901 22.1322756,6.43715901 L22.1326502,6.43715901 Z M87.5530035,13.632424 C86.6278445,13.632424 85.8187986,13.7972297 85.0959011,14.9134134 C83.4665724,17.0296678 78.7059364,30.0328339 78.7920848,32.628523 C78.8295406,33.5574276 79.3351943,34.3739647 80.4850883,34.3739647 C81.799788,34.3739647 82.5301767,33.4675336 83.1819081,32.3663322 C84.6763958,29.8305724 88.8901767,18.3368763 89.0062898,15.4602686 C89.0437456,14.6250035 88.9014134,13.632424 87.5530035,13.632424 Z M102.445442,2.544 L102.445442,1.78139929 L102.962332,1.78139929 C103.344382,1.78139929 103.542898,1.91399293 103.542898,2.15970318 C103.542898,2.35634629 103.419293,2.54362544 103.029753,2.54362544 L102.445442,2.54362544 L102.445442,2.544 Z M104.310742,4.13587279 L103.984876,3.57403534 C103.703958,3.07961837 103.6253,3.00583039 103.389329,2.9185583 L103.389329,2.90732155 C103.861272,2.85226148 104.142191,2.54549823 104.142191,2.12524382 C104.142191,1.68326502 103.861272,1.34691166 103.261979,1.34691166 L101.872367,1.34691166 L101.872367,4.13812014 L102.445442,4.13812014 L102.445442,2.99459364 L102.550318,2.99459364 C102.793781,2.99459364 102.894912,3.02081272 103.007279,3.13318021 C103.119647,3.24667138 103.288198,3.48226855 103.389329,3.68265724 L103.614064,4.13812014 L104.310742,4.13812014 L104.310742,4.13587279 Z M102.936113,0.563335689 C104.1347,0.563335689 105.112297,1.53231802 105.112297,2.73127915 C105.112297,3.92312367 104.1347,4.89884806 102.936113,4.89884806 C101.741272,4.89884806 100.778657,3.92312367 100.778657,2.73127915 C100.778657,1.53269258 101.741272,0.563335689 102.936113,0.563335689 Z M102.936113,0.0303389819 C102.220474,0.0300368353 101.534168,0.314702695 101.028837,0.821438616 C100.523507,1.32817454 100.240749,2.0152687 100.243025,2.73090459 C100.241541,3.44543842 100.524854,4.13111076 101.030283,4.63618782 C101.535711,5.14126487 102.22158,5.4241007 102.936113,5.42211649 C104.434346,5.42211649 105.636678,4.22351943 105.636678,2.73090459 C105.636678,1.23491873 104.430601,0.0303389819 102.936113,0.0303389819 Z"></path>
                    </g>
                </g>
            </g>
        </g>
    </g>
</svg>